<svg enable-background="new 0 0 256 256" height="512" viewBox="0 0 256 256" width="512" xmlns="http://www.w3.org/2000/svg"><path d="m223.142 66.866c-19.78-5.954-22.252-27.566-22.374-36.876-.031-2.376-2.014-4.315-4.391-4.315h-136.754c-2.376 0-4.359 1.939-4.391 4.315-.122 9.31-2.594 30.922-22.374 36.876-1.914.576-3.204 2.37-3.119 4.367.743 17.584 8.618 96.426 89.061 156.03 5.477 4.058 12.924 4.058 18.4 0 80.443-59.604 88.318-138.446 89.061-156.03.084-1.997-1.205-3.79-3.119-4.367z" fill="#4bdbc3"/><path d="m125.462 211.261c-60.087-46.196-74.488-103.892-77.93-129.652-.216-1.618.53-3.197 1.898-4.088 10.434-6.798 17.659-17.821 20.811-31.744.437-1.929 2.123-3.315 4.101-3.315h107.316c1.977 0 3.664 1.386 4.101 3.315 3.153 13.921 10.379 24.945 20.812 31.744 1.368.891 2.114 2.47 1.898 4.088-3.443 25.76-17.843 83.456-77.931 129.653-1.493 1.147-3.583 1.147-5.076-.001z" fill="#ffe2e2"/><path d="m135.5 207.331c-1.62 1.32-3.27 2.63-4.96 3.93-1.49 1.15-3.59 1.15-5.08 0-60.09-46.2-74.49-103.89-77.93-129.65-.21-1.62.53-3.2 1.9-4.09 10.43-6.8 17.66-17.82 20.81-31.74.44-1.93 2.12-3.32 4.1-3.32h15c-1.98 0-3.66 1.39-4.1 3.32-3.15 13.92-10.38 24.94-20.81 31.74-1.37.89-2.11 2.47-1.9 4.09 3.34 25.04 17.04 80.23 72.97 125.72z" fill="#ffefee"/><path d="m208.47 81.611c-3.44 25.76-17.84 83.45-77.93 129.65-1.49 1.15-3.59 1.15-5.08 0-1.69-1.3-3.34-2.61-4.96-3.93 55.93-45.49 69.63-100.68 72.97-125.72.21-1.62-.53-3.2-1.9-4.09-10.43-6.8-17.66-17.82-20.81-31.74-.44-1.93-2.12-3.32-4.1-3.32h15c1.98 0 3.66 1.39 4.1 3.32 3.15 13.92 10.38 24.94 20.81 31.74 1.37.89 2.11 2.47 1.9 4.09z" fill="#ffcfcf"/><path d="m229.472 150.914h-202.944c-1.415 0-2.562-1.147-2.562-2.562v-40.722c0-1.415 1.147-2.562 2.562-2.562h202.944c1.415 0 2.562 1.147 2.562 2.562v40.723c0 1.414-1.147 2.561-2.562 2.561z" fill="#44c7b6"/><path d="m4.333 114.015 5.368 13.976-5.368 13.977h19.633v-9.177-9.599-9.177z" fill="#3bb2a0"/><path d="m251.667 141.968-5.368-13.977 5.368-13.976h-19.633v9.176 9.6 9.177z" fill="#3bb2a0"/><path d="m41.53 150.911h-15c-1.42 0-2.56-1.14-2.56-2.56v-40.72c0-1.42 1.14-2.56 2.56-2.56h15c-1.42 0-2.56 1.14-2.56 2.56v40.72c0 1.42 1.14 2.56 2.56 2.56z" fill="#4bdbc3"/><path d="m232.03 107.631v40.72c0 1.42-1.14 2.56-2.56 2.56h-15c1.42 0 2.56-1.14 2.56-2.56v-40.72c0-1.42-1.14-2.56-2.56-2.56h15c1.42 0 2.56 1.14 2.56 2.56z" fill="#3bb2a0"/><g fill="#5f266d"><path d="m60.138 114.427h-3.077c-.91 0-1.705.613-1.935 1.493l-2.926 11.173-2.669-11.133c-.216-.899-1.02-1.533-1.945-1.533h-3.146c-.908 0-1.701.611-1.934 1.488l-3.027 11.437-2.669-11.382c-.212-.903-1.019-1.543-1.947-1.543h-3.182c-1.302 0-2.259 1.227-1.938 2.492l5.913 23.305c.225.887 1.023 1.508 1.938 1.508h3.146c.901 0 1.691-.603 1.929-1.473l3.07-11.225 2.704 11.168c.217.897 1.021 1.529 1.944 1.529h3.146c.895 0 1.68-.594 1.924-1.455l6.604-23.305c.364-1.275-.598-2.544-1.923-2.544z"/><path d="m76.549 115.782c-.276-.811-1.037-1.354-1.893-1.354h-3.631c-.856 0-1.618.546-1.894 1.356l-7.918 23.305c-.44 1.294.522 2.644 1.894 2.644h3.112c.863 0 1.628-.554 1.899-1.373l1.966-5.957h5.385l2.029 5.974c.275.811 1.037 1.356 1.894 1.356h3.216c1.372 0 2.335-1.352 1.893-2.646zm-4.498 12.268.717-2.117.721 2.117z"/><path d="m105.162 132.89c-.384-1.682-.994-3.046-1.823-4.086 1.802-1.521 2.842-3.722 2.842-6.223 0-2.391-.891-4.495-2.492-5.909-1.849-1.672-4.342-2.417-8.083-2.417-2.266 0-4.575.196-6.177.525-.93.19-1.598 1.01-1.598 1.959v22.992c0 1.104.896 2 2 2h3.008c1.104 0 2-.896 2-2v-8.097h.76c1.426.054 2.198.21 2.793 2.971.949 4.202 1.37 5.43 1.776 6.13.358.616 1.017.996 1.73.996h3.111c.704 0 1.356-.37 1.717-.975.361-.604.378-1.354.044-1.973-.405-.754-1.13-3.853-1.608-5.893zm-10.322-7.535v-4.759c2.336-.123 4.333.144 4.333 2.333 0 2.329-2.303 2.426-4.333 2.426z"/><path d="m127.565 132.889c-.385-1.681-.995-3.045-1.823-4.085 1.801-1.521 2.841-3.722 2.841-6.223 0-2.391-.89-4.494-2.491-5.909-1.849-1.672-4.342-2.417-8.084-2.417-2.267 0-4.576.196-6.176.525-.93.191-1.597 1.01-1.597 1.959v22.992c0 1.104.896 2 2 2h3.008c1.104 0 2-.896 2-2v-8.097h.759c1.427.054 2.199.21 2.793 2.972.951 4.202 1.371 5.429 1.775 6.127.357.618 1.017.998 1.731.998h3.112c1.515 0 2.476-1.622 1.76-2.949-.405-.75-1.13-3.851-1.608-5.893zm-9.246-7.534h-1.077v-4.759c.279-.015.597-.024.952-.024 3.381.037 3.381 1.604 3.381 2.357 0 2.19-2.277 2.426-3.256 2.426z"/><path d="m146.488 115.782c-.276-.811-1.038-1.354-1.893-1.354h-3.631c-.856 0-1.618.546-1.894 1.356l-7.918 23.305c-.44 1.294.522 2.644 1.894 2.644h3.111c.863 0 1.628-.554 1.899-1.373l1.968-5.957h5.385l2.029 5.974c.275.811 1.037 1.356 1.894 1.356h3.216c1.369 0 2.335-1.349 1.893-2.646zm-4.5 12.268.717-2.119.721 2.119z"/><path d="m177.265 114.427h-2.836c-1.104 0-2 .896-2 2 0 9.682-.002 10.081.003 11.072-.18-.288-7.507-11.856-7.689-12.143-.367-.579-1.004-.93-1.689-.93h-3.285c-1.104 0-2 .896-2 2v23.305c0 1.104.896 2 2 2h2.835c1.104 0 2-.896 2-2 0-10.84.001-10.551-.004-11.612.417.675.015.028 7.927 12.673.366.585 1.006.939 1.695.939h3.043c1.104 0 2-.896 2-2v-23.305c0-1.103-.895-1.999-2-1.999z"/><path d="m200.912 114.427h-17.254c-1.104 0-2 .896-2 2v2.559c0 1.104.896 2 2 2h5.088v18.746c0 1.104.896 2 2 2h3.043c1.104 0 2-.896 2-2v-18.746h5.123c1.104 0 2-.896 2-2v-2.559c0-1.104-.896-2-2-2z"/><path d="m219.12 115.502c-4.634 8.888-2.948 5.651-3.952 7.603-.434-.869-.583-1.154-3.868-7.587-.342-.67-1.03-1.091-1.781-1.091h-3.423c-1.522 0-2.482 1.635-1.753 2.962l7.118 12.967v9.376c0 1.104.896 2 2 2h3.043c1.104 0 2-.896 2-2v-9.383l7.542-12.913c.778-1.333-.186-3.009-1.727-3.009h-3.424c-.747 0-1.43.414-1.775 1.075z"/><path d="m250.584 127.993 4.816-12.542c1.006-2.618-.932-5.434-3.734-5.434h-15.633v-2.386c0-3.618-2.943-6.562-6.562-6.562h-3.39c3.095-13.744 3.949-24.303 4.173-29.656.173-3.836-2.285-7.28-5.962-8.37-17.304-5.214-19.418-24.886-19.524-33.1-.057-4.561-3.82-8.271-8.39-8.271h-136.758c-4.569 0-8.333 3.71-8.39 8.269-.106 8.216-2.221 27.888-19.508 33.097-3.693 1.095-6.151 4.539-5.979 8.361.224 5.365 1.079 15.925 4.174 29.67h-3.39c-3.618 0-6.562 2.943-6.562 6.562v2.386h-15.632c-2.805 0-4.739 2.818-3.734 5.434l4.817 12.543-4.816 12.542c-1.006 2.618.932 5.434 3.734 5.434h15.633v2.386c0 3.618 2.943 6.562 6.562 6.562h23.614c15.718 29.185 37.993 54.604 66.277 75.561 6.923 5.13 16.235 5.133 23.163 0 28.284-20.956 50.559-46.376 66.276-75.561h23.614c3.618 0 6.562-2.943 6.562-6.562v-2.386h15.633c2.805 0 4.739-2.818 3.734-5.434zm-230.618 9.977h-9.812l3.28-8.542c.354-.923.355-1.944 0-2.867l-3.281-8.543h9.812v19.952zm14.048-67.266c22.373-6.741 25.087-30.68 25.216-40.66.002-.184.2-.37.391-.37h136.76c.191 0 .388.187.391.372.128 9.979 2.843 33.917 25.232 40.663.163.049.268.187.26.357-.222 5.313-1.095 16.007-4.386 30.004h-9.076c1.576-6.359 2.799-12.707 3.636-18.942.41-3.164-1.002-6.213-3.683-7.955-9.569-6.239-16.171-16.36-19.095-29.277-.863-3.787-4.152-6.432-8-6.432h-107.32c-3.847 0-7.137 2.645-8.001 6.438-2.922 12.911-9.525 23.032-19.089 29.268-2.685 1.745-4.097 4.794-3.685 7.976.836 6.221 2.058 12.566 3.634 18.925h-9.076c-3.291-13.997-4.164-24.691-4.387-30.018-.007-.157.098-.295.278-.349zm170.492 10.377c-.881 6.558-2.234 13.27-3.978 19.989h-145.056c-1.744-6.719-3.097-13.429-3.975-19.972-.016-.118.064-.189.118-.225 11.347-7.397 19.136-19.227 22.525-34.201.023-.101.095-.209.2-.209h107.32c.104 0 .177.108.198.203 3.391 14.98 11.18 26.81 22.531 34.21.05.033.13.104.117.205zm-69.687 142.969c-4.079 3.021-9.56 3.021-13.638 0-26.098-19.337-46.897-42.573-61.918-69.133h10.254c13.498 22.562 31.479 42.581 53.499 59.513 2.928 2.261 7.027 2.271 9.963.005 22.025-16.937 40.007-36.956 53.505-59.518h10.254c-15.022 26.56-35.821 49.796-61.919 69.133zm-55.911-69.133h98.183c-12.67 20.024-29.115 37.894-48.996 53.181-.05.038-.141.039-.197-.005-19.875-15.283-36.319-33.152-48.99-53.176zm149.126-8h-200.068c0-13.801 0-24.045 0-37.847h175.598c.019 0 .039.004.058.004.016 0 .031-.004.048-.004h17.29c.021 0 .042.004.063.004.016 0 .031-.004.047-.004h6.964zm14.531-17.49 3.281 8.543h-9.812v-19.952h9.812l-3.28 8.542c-.355.922-.356 1.944-.001 2.867z"/><path d="m101.193 56.667h-14c-2.209 0-4 1.791-4 4s1.791 4 4 4h14c2.209 0 4-1.791 4-4s-1.791-4-4-4z"/><path d="m119.824 56.667h-3.631c-2.209 0-4 1.791-4 4s1.791 4 4 4h3.631c2.209 0 4-1.791 4-4s-1.791-4-4-4z"/></g></svg>